<svg style="display:none">
  <symbol id='google-icon' xmlns="http://www.w3.org/2000/svg"  viewBox="0 0 24 24" fill="none">
  <path d="M21.8055 10.0415H21V10H12V14H17.6515C16.827 16.3285 14.6115 18 12 18C8.6865 18 6 15.3135 6 12C6 8.6865 8.6865 6 12 6C13.5295 6 14.921 6.577 15.9805 7.5195L18.809 4.691C17.023 3.0265 14.634 2 12 2C6.4775 2 2 6.4775 2 12C2 17.5225 6.4775 22 12 22C17.5225 22 22 17.5225 22 12C22 11.3295 21.931 10.675 21.8055 10.0415Z" fill="#FFC107"/>
  <path d="M3.1543 7.3455L6.4398 9.755C7.3288 7.554 9.4818 6 12.0013 6C13.5308 6 14.9223 6.577 15.9818 7.5195L18.8103 4.691C17.0243 3.0265 14.6353 2 12.0013 2C8.1603 2 4.8293 4.1685 3.1543 7.3455Z" fill="#FF3D00"/>
  <path d="M12.0002 22.0003C14.5832 22.0003 16.9302 21.0118 18.7047 19.4043L15.6097 16.7853C14.6057 17.5458 13.3577 18.0003 12.0002 18.0003C9.39916 18.0003 7.19066 16.3418 6.35866 14.0273L3.09766 16.5398C4.75266 19.7783 8.11366 22.0003 12.0002 22.0003Z" fill="#4CAF50"/>
  <path d="M21.8055 10.0415H21V10H12V14H17.6515C17.2555 15.1185 16.536 16.083 15.608 16.7855L15.6095 16.7845L18.7045 19.4035C18.4855 19.6025 22 17 22 12C22 11.3295 21.931 10.675 21.8055 10.0415Z" fill="#1976D2"/>
</symbol>

<symbol id='error-icon' xmlns="http://www.w3.org/2000/svg"  viewBox="0 0 24 24" fill='none'>
<path d="M12 9V13M12 16V16.01M3 12C3 13.1819 3.23279 14.3522 3.68508 15.4442C4.13738 16.5361 4.80031 17.5282 5.63604 18.364C6.47177 19.1997 7.46392 19.8626 8.55585 20.3149C9.64778 20.7672 10.8181 21 12 21C13.1819 21 14.3522 20.7672 15.4442 20.3149C16.5361 19.8626 17.5282 19.1997 18.364 18.364C19.1997 17.5282 19.8626 16.5361 20.3149 15.4442C20.7672 14.3522 21 13.1819 21 12C21 10.8181 20.7672 9.64778 20.3149 8.55585C19.8626 7.46392 19.1997 6.47177 18.364 5.63604C17.5282 4.80031 16.5361 4.13738 15.4442 3.68508C14.3522 3.23279 13.1819 3 12 3C10.8181 3 9.64778 3.23279 8.55585 3.68508C7.46392 4.13738 6.47177 4.80031 5.63604 5.63604C4.80031 6.47177 4.13738 7.46392 3.68508 8.55585C3.23279 9.64778 3 10.8181 3 12Z" stroke-linecap="round" stroke-linejoin="round"/>
</symbol>

<symbol id='icon-eye' xmlns="http://www.w3.org/2000/svg" viewBox="0 0 24 24" fill="none">
<path d="M10 12C10 12.5304 10.2107 13.0391 10.5858 13.4142C10.9609 13.7893 11.4696 14 12 14C12.5304 14 13.0391 13.7893 13.4142 13.4142C13.7893 13.0391 14 12.5304 14 12C14 11.4696 13.7893 10.9609 13.4142 10.5858C13.0391 10.2107 12.5304 10 12 10C11.4696 10 10.9609 10.2107 10.5858 10.5858C10.2107 10.9609 10 11.4696 10 12Z" stroke="#D1D7E0" stroke-linecap="round" stroke-linejoin="round"/>
<path d="M21 12C18.6 16 15.6 18 12 18C8.4 18 5.4 16 3 12C5.4 8 8.4 6 12 6C15.6 6 18.6 8 21 12Z" stroke="#D1D7E0" stroke-linecap="round" stroke-linejoin="round"/>
</symbol>
 
<symbol id='icon-eye-off' xmlns="http://www.w3.org/2000/svg"  viewBox="0 0 24 24" fill="none">
<path d="M10.5851 10.5869C10.21 10.9621 9.99942 11.4708 9.99951 12.0013C9.99961 12.5317 10.2104 13.0404 10.5856 13.4154C10.9607 13.7904 11.4695 14.0011 11.9999 14.001C12.5304 14.0009 13.039 13.7901 13.4141 13.4149M16.681 16.673C15.2782 17.5507 13.6547 18.0109 12 18C8.4 18 5.4 16 3 12C4.272 9.88003 5.712 8.32203 7.32 7.32603M10.18 6.18003C10.779 6.05876 11.3888 5.99845 12 6.00003C15.6 6.00003 18.6 8.00003 21 12C20.334 13.11 19.621 14.067 18.862 14.87M3 3L21 21"  stroke="#D1D7E0" stroke-linecap="round" stroke-linejoin="round"/>
</symbol>

</svg>

